<?xml version="1.0" encoding="iso-8859-1"?>
<!-- Uploaded to: SVG Repo, www.svgrepo.com, Generator: SVG Repo Mixer Tools -->
<svg version="1.1" id="Layer_1" xmlns="http://www.w3.org/2000/svg" xmlns:xlink="http://www.w3.org/1999/xlink" 
	 viewBox="0 0 512 512" xml:space="preserve">
<rect x="80" y="83.695" style="fill:#CFF09E;" width="352" height="247.024"/>
<g>
	<path style="fill:#507C5C;" d="M432,346.711H80c-8.837,0-16-7.163-16-16V83.689c0-8.837,7.163-16,16-16h352c8.837,0,16,7.163,16,16
		v247.022C448,339.548,440.837,346.711,432,346.711z M96,314.711h320V99.689H96V314.711z"/>
	<path style="fill:#507C5C;" d="M279.2,393.108h-46.4c-8.837,0-16-7.163-16-16s7.163-16,16-16h46.4c8.837,0,16,7.163,16,16
		S288.037,393.108,279.2,393.108z"/>
	<path style="fill:#507C5C;" d="M496,93.377c8.837,0,16-7.163,16-16V19.69c0-8.837-7.163-16-16-16H16c-8.837,0-16,7.163-16,16
		v411.786c0,8.837,7.163,16,16,16h156.523v28.834H136.8c-8.837,0-16,7.163-16,16s7.163,16,16,16h51.723h134.954H375.2
		c8.837,0,16-7.163,16-16s-7.163-16-16-16h-35.723v-28.834H496c8.837,0,16-7.163,16-16V164.841c0-8.837-7.163-16-16-16
		s-16,7.163-16,16v250.634H323.477c-8.837,0-16,7.163-16,16v44.834H204.523v-28.834h38.669c8.837,0,16-7.163,16-16s-7.163-16-16-16
		H32V35.69h448v41.686C480,86.214,487.163,93.377,496,93.377z"/>
</g>
</svg>